# Blender v2.79 (sub 0) OBJ File: ''
# www.blender.org
o Cube
v 1.000000 -1.000000 -1.000000
v 1.000000 -1.000000 1.000000
v -1.000000 -1.000000 1.000000
v -1.000000 -1.000000 -1.000000
v 1.000000 1.000000 -0.999999
v 0.999999 1.000000 1.000001
v -1.000000 1.000000 1.000000
v -1.000000 1.000000 -1.000000
v 1.000000 -1.000000 -1.000000
v 1.000000 -1.000000 1.000000
v -1.000000 -1.000000 1.000000
v -1.000000 -1.000000 -1.000000
v 1.000000 1.000000 -0.999999
v -1.000000 1.000000 -1.000000
v -1.000000 1.000000 1.000000
v 0.999999 1.000000 1.000001
v 1.000000 -1.000000 -1.000000
v 1.000000 1.000000 -0.999999
v 0.999999 1.000000 1.000001
v 1.000000 -1.000000 1.000000
v 1.000000 -1.000000 1.000000
v 0.999999 1.000000 1.000001
v -1.000000 1.000000 1.000000
v -1.000000 -1.000000 1.000000
v -1.000000 -1.000000 1.000000
v -1.000000 1.000000 1.000000
v -1.000000 1.000000 -1.000000
v -1.000000 -1.000000 -1.000000
v 1.700376 1.000000 -2.353058
v 1.000000 -1.000000 -1.688911
v -1.000000 -1.000000 -1.688911
v -1.000000 1.000000 -1.926048
v 1.000000 -1.000000 0.600000
v 1.000000 -1.000000 0.200000
v 1.000000 -1.000000 -0.200000
v 1.000000 -1.000000 -0.600000
v -0.600000 -1.000000 1.000000
v -0.200000 -1.000000 1.000000
v 0.200000 -1.000000 1.000000
v 0.600000 -1.000000 1.000000
v -1.000000 -1.000000 -0.600000
v -1.000000 -1.000000 -0.200000
v -1.000000 -1.000000 0.200000
v -1.000000 -1.000000 0.600000
v 0.600000 -1.000000 -1.688911
v 0.200000 -1.000000 -1.000000
v -0.200000 -1.000000 -1.000000
v -0.600000 -1.000000 -1.000000
v -0.600000 1.000000 -1.000000
v -0.200000 1.000000 -1.000000
v 0.200000 1.000000 -1.000000
v 0.600000 1.000000 -1.000000
v -1.000000 1.000000 0.600000
v -1.000000 1.000000 0.200000
v -1.000000 1.000000 -0.200000
v -1.000000 1.000000 -0.600000
v 0.599999 1.000000 1.000000
v 0.199999 1.000000 1.000000
v -0.200000 1.000000 1.000000
v -0.600000 1.000000 1.000000
v 1.000000 1.000000 -0.599999
v 1.000000 1.000000 -0.199999
v 1.000000 1.000000 0.200001
v 1.000000 1.000000 0.600001
v 1.000000 0.600000 -1.000000
v 1.000000 0.200000 -1.000000
v 1.000000 -0.200000 -1.000000
v 1.000000 -0.600000 -1.000000
v 1.000000 1.000000 0.600001
v 1.000000 1.000000 0.200001
v 1.000000 1.000000 -0.199999
v 1.000000 1.000000 -0.599999
v 1.000000 -0.600000 1.000000
v 1.000000 -0.200000 1.000000
v 1.000000 0.200000 1.000000
v 1.000000 0.600000 1.000000
v 1.000000 -1.000000 -0.600000
v 1.000000 -1.000000 -0.200000
v 1.000000 -1.000000 0.200000
v 1.000000 -1.000000 0.600000
v 0.999999 0.600000 1.000000
v 1.000000 0.200000 1.000000
v 1.000000 -0.200000 1.000000
v 1.000000 -0.600000 1.000000
v -0.600000 1.000000 1.000000
v -0.200000 1.000000 1.000000
v 0.199999 1.000000 1.000000
v 0.599999 1.000000 1.000000
v -1.000000 -0.600000 1.000000
v -1.000000 -0.200000 1.000000
v -1.000000 0.200000 1.000000
v -1.000000 0.600000 1.000000
v 0.600000 -1.000000 1.000000
v 0.200000 -1.000000 1.000000
v -0.200000 -1.000000 1.000000
v -0.600000 -1.000000 1.000000
v -1.000000 0.600000 1.000000
v -1.000000 0.200000 1.000000
v -1.000000 -0.200000 1.000000
v -1.000000 -0.600000 1.000000
v -1.000000 1.000000 -0.600000
v -1.000000 1.000000 -0.200000
v -1.000000 1.000000 0.200000
v -1.000000 1.000000 0.600000
v -1.000000 -0.600000 -1.000000
v -1.000000 -0.200000 -1.000000
v -1.000000 0.200000 -1.000000
v -1.000000 0.600000 -1.000000
v -1.000000 -1.000000 0.600000
v -1.000000 -1.000000 0.200000
v -1.000000 -1.000000 -0.200000
v -1.000000 -1.000000 -0.600000
v 1.000000 -0.600000 -1.688911
v 1.000000 -0.200000 -1.000000
v 1.000000 0.200000 -1.000000
v 1.000000 0.600000 -1.926048
v -0.600000 -1.000000 -1.688911
v -0.200000 -1.000000 -1.688911
v 0.200000 -1.000000 -1.688911
v 0.600000 -1.000000 -1.688911
v -1.000000 0.600000 -1.926048
v -1.000000 0.200000 -1.000000
v -1.000000 -0.200000 -1.000000
v -1.000000 -0.600000 -1.688911
v 0.600000 1.000000 -1.926048
v 0.200000 1.000000 -1.926048
v -0.200000 1.000000 -1.926048
v -0.600000 1.000000 -1.926048
v 0.600000 0.600000 -1.926048
v 0.200000 0.600000 -1.926048
v -0.200000 0.600000 -1.926048
v -0.600000 0.600000 -1.926048
v 0.600000 0.200000 -1.000000
v 0.200000 0.200000 -1.000000
v -0.200000 0.200000 -1.000000
v -0.600000 0.200000 -1.000000
v 0.600000 -0.200000 -1.000000
v 0.200000 -0.200000 -1.000000
v -0.200000 -0.200000 -1.000000
v -0.600000 -0.200000 -1.000000
v 0.600000 -0.600000 -1.688911
v 0.200000 -0.600000 -1.688911
v -0.200000 -0.600000 -1.688911
v -0.600000 -0.600000 -1.688911
v -1.000000 -0.600000 0.600000
v -1.000000 -0.600000 0.200000
v -1.000000 -0.600000 -0.200000
v -1.000000 -0.600000 -0.600000
v -1.000000 -0.200000 0.600000
v -1.000000 -0.200000 0.200000
v -1.000000 -0.200000 -0.200000
v -1.000000 -0.200000 -0.600000
v -1.000000 0.200000 0.600000
v -1.000000 0.200000 0.200000
v -1.000000 0.200000 -0.200000
v -1.000000 0.200000 -0.600000
v -1.000000 0.600000 0.600000
v -1.000000 0.600000 0.200000
v -1.000000 0.600000 -0.200000
v -1.000000 0.600000 -0.600000
v 0.600000 -0.600000 1.000000
v 0.200000 -0.600000 1.000000
v -0.200000 -0.600000 1.000000
v -0.600000 -0.600000 1.000000
v 0.600000 -0.200000 1.000000
v 0.200000 -0.200000 1.000000
v -0.200000 -0.200000 1.000000
v -0.600000 -0.200000 1.000000
v 0.600000 0.200000 1.000000
v 0.200000 0.200000 1.000000
v -0.200000 0.200000 1.000000
v -0.600000 0.200000 1.000000
v 0.600000 0.600000 1.000000
v 0.200000 0.600000 1.000000
v -0.200000 0.600000 1.000000
v -0.600000 0.600000 1.000000
v 1.000000 -0.600000 -0.600000
v 1.000000 -0.600000 -0.200000
v 1.000000 -0.600000 0.200000
v 1.000000 -0.600000 0.600000
v 1.000000 -0.200000 -0.600000
v 1.000000 -0.200000 -0.200000
v 1.000000 -0.200000 0.200000
v 1.000000 -0.200000 0.600000
v 1.000000 0.200000 -0.600000
v 1.000000 0.200000 -0.200000
v 1.000000 0.200000 0.200000
v 1.000000 0.200000 0.600000
v 1.000000 0.600000 -0.600000
v 1.000000 0.600000 -0.200000
v 1.000000 0.600000 0.200000
v 1.000000 0.600000 0.600001
v 0.600000 1.000000 -0.600000
v 0.600000 1.000000 -0.200000
v 0.600000 1.000000 0.200000
v 0.600000 1.000000 0.600000
v 0.200000 1.000000 -0.600000
v 0.200000 1.000000 -0.200000
v 0.200000 1.000000 0.200000
v 0.200000 1.000000 0.600000
v -0.200000 1.000000 -0.600000
v -0.200000 1.000000 -0.200000
v -0.200000 1.000000 0.200000
v -0.200000 1.000000 0.600000
v -0.600000 1.000000 -0.600000
v -0.600000 1.000000 -0.200000
v -0.600000 1.000000 0.200000
v -0.600000 1.000000 0.600000
v 0.600000 -1.000000 -0.600000
v 0.200000 -1.000000 -0.600000
v -0.200000 -1.000000 -0.600000
v -0.600000 -1.000000 -0.600000
v 0.600000 -1.000000 -0.200000
v 0.200000 -1.000000 -0.200000
v -0.200000 -1.000000 -0.200000
v -0.600000 -1.000000 -0.200000
v 0.600000 -1.000000 0.200000
v 0.200000 -1.000000 0.200000
v -0.200000 -1.000000 0.200000
v -0.600000 -1.000000 0.200000
v 0.600000 -1.000000 0.600000
v 0.200000 -1.000000 0.600000
v -0.200000 -1.000000 0.600000
v -0.600000 -1.000000 0.600000
vn 0.0000 1.0000 0.0000
vn 0.0000 -1.0000 0.0000
vn 0.0000 -0.7071 0.7071
vn 0.0000 -0.3162 0.9487
vn 0.0000 0.0000 1.0000
vn 0.0000 -0.7733 0.6340
vn 0.0000 0.4472 0.8944
vn 0.0000 0.2426 0.9701
vn -0.6509 0.6509 0.3905
vn 0.0000 0.6341 -0.7732
vn 0.0000 0.3099 0.9507
vn 1.0000 0.0000 0.0000
vn 0.4472 0.0000 0.8944
vn 0.1891 0.0000 0.9819
vn 0.6666 -0.3333 0.6666
vn 0.7071 -0.7071 0.0000
vn 0.7071 0.7071 0.0000
vn 0.0498 0.0000 0.9987
vn 0.7071 0.0000 0.7071
vn 0.0000 -0.0498 0.9987
vn -0.4332 0.0000 0.9013
vn 0.6710 0.0000 0.7414
vn 0.8281 0.0000 0.5606
vn 0.5606 0.0000 0.8281
vn -0.7071 0.0000 0.7071
vn -1.0000 0.0000 0.0000
vn -0.8746 0.0000 0.4848
vn -0.4848 0.0000 0.8746
vn -0.7072 0.7070 0.0002
vn -0.7071 -0.7071 0.0001
vn 0.0000 -0.7071 -0.7071
vn -0.6102 0.3953 -0.6866
vn 0.0000 0.4989 -0.8666
vn 0.3010 -0.7766 -0.5534
vn 0.6785 -0.0982 0.7280
vn 0.8944 0.0000 0.4472
vn -0.3582 0.4658 -0.8091
vn 0.0000 0.7071 -0.7071
vn -0.6019 -0.4386 -0.6673
vn -0.5773 0.5773 -0.5773
vn 0.0000 -0.5493 -0.8356
vn -0.4050 -0.5022 -0.7640
vn -0.0646 0.7189 -0.6921
vn 0.7707 0.1552 -0.6180
vn 0.3582 0.4658 -0.8091
vn 0.4050 -0.5022 -0.7640
vn 0.6102 0.3953 -0.6866
vn 0.5773 -0.5773 -0.5773
vn -0.7071 0.7071 0.0000
vn -0.7071 0.0000 -0.7071
vn -0.4472 0.0000 0.8944
vn -0.9436 0.0000 -0.3310
vn -0.7071 0.0000 0.7070
vn -0.7733 0.0000 0.6340
vn 0.0000 0.9951 0.0985
vn 0.0000 0.7071 0.7071
vn 0.0000 -0.9951 0.0985
vn -0.5606 0.0000 0.8281
vn 0.0000 0.7072 0.7070
vn 0.0000 -0.9819 0.1894
vn 0.9997 0.0000 0.0250
vn 0.8900 0.0000 0.4560
vn 0.8944 0.4472 0.0000
vn 0.9819 0.0000 0.1891
vn 0.0000 0.9013 0.4331
vn 0.0000 0.8281 0.5606
vn 0.0000 0.7733 0.6340
vn 0.0000 1.0000 0.0001
vn 0.0000 0.7071 0.7070
vn 0.0000 -0.4472 0.8944
vn 0.0000 -0.6340 0.7733
vn -0.5773 -0.5773 -0.5773
vn 0.0000 0.9436 0.3311
s 1
f 37//1 44//2 224//2
f 34//3 36//2 1//4
f 2//5 3//5 38//6
f 4//4 44//2 3//5
f 208//1 15//7 60//1
f 13//7 8//8 49//1
f 7//5 53//9 14//7
f 58//10 60//1 7//5
f 16//7 5//11 61//2
f 192//12 19//13 76//14
f 17//15 1//4 5//11
f 6//5 71//16 72//17
f 2//5 73//18 19//13
f 79//19 20//13 2//5
f 85//20 92//21 176//5
f 82//22 21//5 2//5
f 6//5 7//5 85//20
f 90//23 91//24 7//5
f 24//5 3//5 2//5
f 101//25 108//26 160//26
f 97//27 100//28 3//5
f 102//29 104//30 7//5
f 4//4 107//26 8//8
f 3//5 109//25 28//25
f 117//31 124//32 144//33
f 116//34 18//35 65//36
f 118//31 119//31 1//4
f 124//32 105//26 123//37
f 127//38 128//38 8//8
f 128//38 121//39 32//40
f 136//41 121//39 132//41
f 140//33 122//42 136//41
f 144//33 123//37 140//33
f 116//34 125//43 29//44
f 129//41 126//38 125//43
f 126//38 131//41 127//38
f 131//41 128//38 127//38
f 116//34 133//41 129//41
f 133//41 130//41 129//41
f 130//41 135//41 131//41
f 135//41 132//41 131//41
f 114//45 133//41 115//46
f 137//33 134//41 133//41
f 134//41 139//33 135//41
f 139//33 136//41 135//41
f 113//47 137//33 114//45
f 141//33 138//33 137//33
f 142//33 139//33 138//33
f 143//33 140//33 139//33
f 30//48 141//33 113//47
f 120//31 142//33 141//33
f 119//31 143//33 142//33
f 118//31 144//33 143//33
f 112//49 105//26 28//25
f 152//26 105//26 148//26
f 156//26 106//50 152//26
f 156//26 108//26 107//26
f 100//28 109//25 25//51
f 145//26 110//25 109//25
f 146//26 111//49 110//25
f 111//49 148//26 112//49
f 99//50 145//26 100//28
f 149//26 146//26 145//26
f 150//26 147//26 146//26
f 151//26 148//26 147//26
f 98//52 149//26 99//50
f 153//26 150//26 149//26
f 154//26 151//26 150//26
f 151//26 156//26 152//26
f 97//27 153//26 98//52
f 157//26 154//26 153//26
f 154//26 159//26 155//26
f 155//26 160//26 156//26
f 26//51 157//26 97//27
f 104//30 158//26 157//26
f 103//53 159//26 158//26
f 102//29 160//26 159//26
f 164//5 24//5 96//3
f 168//5 89//21 164//5
f 172//5 90//23 168//5
f 176//5 91//24 172//5
f 84//54 93//55 21//5
f 161//5 94//56 93//55
f 162//5 95//57 94//56
f 163//5 96//3 95//57
f 83//58 161//5 84//54
f 165//5 162//5 161//5
f 166//5 163//5 162//5
f 167//5 164//5 163//5
f 82//22 165//5 83//58
f 169//5 166//5 165//5
f 170//5 167//5 166//5
f 171//5 168//5 167//5
f 81//5 169//5 82//22
f 173//5 170//5 169//5
f 174//5 171//5 170//5
f 175//5 172//5 171//5
f 22//5 173//5 81//5
f 173//5 87//59 174//5
f 87//59 175//5 174//5
f 86//60 176//5 175//5
f 180//12 20//13 80//19
f 184//12 73//18 180//12
f 188//12 74//18 184//12
f 192//12 75//61 188//12
f 68//62 77//63 17//15
f 177//12 78//19 77//63
f 178//12 79//19 78//19
f 179//12 80//19 79//19
f 67//64 177//12 68//62
f 181//12 178//12 177//12
f 182//12 179//12 178//12
f 183//12 180//12 179//12
f 66//19 181//12 67//64
f 185//12 182//12 181//12
f 186//12 183//12 182//12
f 187//12 184//12 183//12
f 65//36 185//12 66//19
f 189//12 186//12 185//12
f 190//12 187//12 186//12
f 191//12 188//12 187//12
f 18//35 189//12 65//36
f 72//17 190//12 189//12
f 71//16 191//12 190//12
f 70//19 192//12 191//12
f 196//1 16//7 64//56
f 200//1 57//65 196//1
f 204//1 58//10 200//1
f 208//1 59//66 204//1
f 52//1 61//2 13//7
f 193//1 62//56 61//2
f 194//1 63//56 62//56
f 63//56 196//1 64//56
f 51//67 193//1 52//1
f 197//1 194//1 193//1
f 198//1 195//1 194//1
f 199//1 196//1 195//1
f 50//1 197//1 51//67
f 201//1 198//1 197//1
f 198//1 203//1 199//1
f 199//1 204//1 200//1
f 49//1 201//1 50//1
f 201//1 206//1 202//1
f 206//1 203//1 202//1
f 203//1 208//1 204//1
f 49//1 56//68 205//1
f 205//1 55//69 206//1
f 206//1 54//68 207//1
f 207//1 53//9 208//1
f 212//2 12//3 48//2
f 212//2 42//3 41//3
f 220//2 42//3 216//2
f 224//2 43//3 220//2
f 46//2 211//2 47//2
f 211//2 48//2 47//2
f 35//3 209//2 36//2
f 213//2 210//2 209//2
f 210//2 215//2 211//2
f 215//2 212//2 211//2
f 34//3 213//2 35//3
f 217//2 214//2 213//2
f 218//2 215//2 214//2
f 219//2 216//2 215//2
f 33//3 217//2 34//3
f 221//2 218//2 217//2
f 222//2 219//2 218//2
f 223//2 220//2 219//2
f 10//70 221//2 33//3
f 40//1 222//2 221//2
f 39//71 223//2 222//2
f 38//6 224//2 223//2
f 113//47 68//62 30//48
f 17//15 30//48 68//62
f 210//2 17//15 77//63
f 31//72 28//25 105//26
f 32//40 108//26 27//25
f 121//39 108//26 32//40
f 37//1 11//70 44//2
f 2//5 10//70 33//3
f 34//3 35//3 36//2
f 2//5 33//3 34//3
f 36//2 9//5 1//4
f 1//4 2//5 34//3
f 3//5 11//70 37//1
f 38//6 39//71 2//5
f 39//71 40//1 2//5
f 3//5 37//1 38//6
f 40//1 10//70 2//5
f 4//4 12//3 41//3
f 42//3 43//3 41//3
f 43//3 44//2 4//4
f 4//4 41//3 43//3
f 44//2 11//70 3//5
f 208//1 53//9 15//7
f 8//8 14//7 49//1
f 49//1 50//1 13//7
f 50//1 51//67 13//7
f 13//7 5//11 8//8
f 51//67 52//1 13//7
f 7//5 15//7 53//9
f 54//68 55//69 56//68
f 53//9 54//68 14//7
f 54//68 56//68 14//7
f 14//7 8//8 7//5
f 6//5 16//7 57//65
f 58//10 59//66 60//1
f 6//5 57//65 58//10
f 60//1 15//7 7//5
f 7//5 6//5 58//10
f 5//11 13//7 61//2
f 61//2 62//56 16//7
f 62//56 63//56 16//7
f 16//7 6//5 5//11
f 63//56 64//56 16//7
f 192//12 69//17 19//13
f 5//11 18//35 65//36
f 66//19 67//64 17//15
f 67//64 68//62 17//15
f 5//11 65//36 17//15
f 65//36 66//19 17//15
f 6//5 19//13 69//17
f 69//17 70//19 71//16
f 72//17 18//35 5//11
f 6//5 69//17 71//16
f 72//17 5//11 6//5
f 2//5 20//13 73//18
f 73//18 74//18 19//13
f 74//18 75//61 19//13
f 75//61 76//14 19//13
f 19//13 6//5 2//5
f 2//5 1//4 17//15
f 77//63 78//19 79//19
f 2//5 17//15 77//63
f 79//19 80//19 20//13
f 2//5 77//63 79//19
f 85//20 23//5 92//21
f 6//5 22//5 81//5
f 82//22 83//58 84//54
f 6//5 81//5 2//5
f 81//5 82//22 2//5
f 82//22 84//54 21//5
f 7//5 23//5 85//20
f 85//20 86//60 87//59
f 88//73 22//5 6//5
f 85//20 87//59 6//5
f 87//59 88//73 6//5
f 3//5 24//5 89//21
f 3//5 89//21 90//23
f 92//21 23//5 7//5
f 7//5 3//5 90//23
f 91//24 92//21 7//5
f 2//5 21//5 93//55
f 94//56 95//57 24//5
f 95//57 96//3 24//5
f 2//5 93//55 24//5
f 93//55 94//56 24//5
f 101//25 27//25 108//26
f 7//5 26//51 97//27
f 97//27 98//52 99//50
f 100//28 25//51 3//5
f 97//27 99//50 100//28
f 3//5 7//5 97//27
f 8//8 27//25 101//25
f 102//29 103//53 104//30
f 8//8 101//25 102//29
f 104//30 26//51 7//5
f 7//5 8//8 102//29
f 4//4 28//25 105//26
f 105//26 106//50 4//4
f 106//50 107//26 4//4
f 108//26 27//25 8//8
f 107//26 108//26 8//8
f 3//5 25//51 109//25
f 110//25 111//49 112//49
f 109//25 110//25 112//49
f 28//25 4//4 3//5
f 109//25 112//49 28//25
f 117//31 31//72 124//32
f 65//36 115//46 116//34
f 116//34 29//44 18//35
f 1//4 4//4 118//31
f 4//4 31//72 117//31
f 117//31 118//31 4//4
f 119//31 120//31 1//4
f 120//31 30//48 1//4
f 124//32 31//72 105//26
f 8//8 5//11 126//38
f 5//11 29//44 125//43
f 5//11 125//43 126//38
f 128//38 32//40 8//8
f 126//38 127//38 8//8
f 128//38 132//41 121//39
f 136//41 122//42 121//39
f 140//33 123//37 122//42
f 144//33 124//32 123//37
f 116//34 129//41 125//43
f 129//41 130//41 126//38
f 126//38 130//41 131//41
f 131//41 132//41 128//38
f 116//34 115//46 133//41
f 133//41 134//41 130//41
f 130//41 134//41 135//41
f 135//41 136//41 132//41
f 114//45 137//33 133//41
f 137//33 138//33 134//41
f 134//41 138//33 139//33
f 139//33 140//33 136//41
f 113//47 141//33 137//33
f 141//33 142//33 138//33
f 142//33 143//33 139//33
f 143//33 144//33 140//33
f 30//48 120//31 141//33
f 120//31 119//31 142//33
f 119//31 118//31 143//33
f 118//31 117//31 144//33
f 112//49 148//26 105//26
f 152//26 106//50 105//26
f 156//26 107//26 106//50
f 156//26 160//26 108//26
f 100//28 145//26 109//25
f 145//26 146//26 110//25
f 146//26 147//26 111//49
f 111//49 147//26 148//26
f 99//50 149//26 145//26
f 149//26 150//26 146//26
f 150//26 151//26 147//26
f 151//26 152//26 148//26
f 98//52 153//26 149//26
f 153//26 154//26 150//26
f 154//26 155//26 151//26
f 151//26 155//26 156//26
f 97//27 157//26 153//26
f 157//26 158//26 154//26
f 154//26 158//26 159//26
f 155//26 159//26 160//26
f 26//51 104//30 157//26
f 104//30 103//53 158//26
f 103//53 102//29 159//26
f 102//29 101//25 160//26
f 164//5 89//21 24//5
f 168//5 90//23 89//21
f 172//5 91//24 90//23
f 176//5 92//21 91//24
f 84//54 161//5 93//55
f 161//5 162//5 94//56
f 162//5 163//5 95//57
f 163//5 164//5 96//3
f 83//58 165//5 161//5
f 165//5 166//5 162//5
f 166//5 167//5 163//5
f 167//5 168//5 164//5
f 82//22 169//5 165//5
f 169//5 170//5 166//5
f 170//5 171//5 167//5
f 171//5 172//5 168//5
f 81//5 173//5 169//5
f 173//5 174//5 170//5
f 174//5 175//5 171//5
f 175//5 176//5 172//5
f 22//5 88//73 173//5
f 173//5 88//73 87//59
f 87//59 86//60 175//5
f 86//60 85//20 176//5
f 180//12 73//18 20//13
f 184//12 74//18 73//18
f 188//12 75//61 74//18
f 192//12 76//14 75//61
f 68//62 177//12 77//63
f 177//12 178//12 78//19
f 178//12 179//12 79//19
f 179//12 180//12 80//19
f 67//64 181//12 177//12
f 181//12 182//12 178//12
f 182//12 183//12 179//12
f 183//12 184//12 180//12
f 66//19 185//12 181//12
f 185//12 186//12 182//12
f 186//12 187//12 183//12
f 187//12 188//12 184//12
f 65//36 189//12 185//12
f 189//12 190//12 186//12
f 190//12 191//12 187//12
f 191//12 192//12 188//12
f 18//35 72//17 189//12
f 72//17 71//16 190//12
f 71//16 70//19 191//12
f 70//19 69//17 192//12
f 196//1 57//65 16//7
f 200//1 58//10 57//65
f 204//1 59//66 58//10
f 208//1 60//1 59//66
f 52//1 193//1 61//2
f 193//1 194//1 62//56
f 194//1 195//1 63//56
f 63//56 195//1 196//1
f 51//67 197//1 193//1
f 197//1 198//1 194//1
f 198//1 199//1 195//1
f 199//1 200//1 196//1
f 50//1 201//1 197//1
f 201//1 202//1 198//1
f 198//1 202//1 203//1
f 199//1 203//1 204//1
f 49//1 205//1 201//1
f 201//1 205//1 206//1
f 206//1 207//1 203//1
f 203//1 207//1 208//1
f 49//1 14//7 56//68
f 205//1 56//68 55//69
f 206//1 55//69 54//68
f 207//1 54//68 53//9
f 212//2 41//3 12//3
f 212//2 216//2 42//3
f 220//2 43//3 42//3
f 224//2 44//2 43//3
f 46//2 210//2 211//2
f 211//2 212//2 48//2
f 35//3 213//2 209//2
f 213//2 214//2 210//2
f 210//2 214//2 215//2
f 215//2 216//2 212//2
f 34//3 217//2 213//2
f 217//2 218//2 214//2
f 218//2 219//2 215//2
f 219//2 220//2 216//2
f 33//3 221//2 217//2
f 221//2 222//2 218//2
f 222//2 223//2 219//2
f 223//2 224//2 220//2
f 10//70 40//1 221//2
f 40//1 39//71 222//2
f 39//71 38//6 223//2
f 38//6 37//1 224//2
f 113//47 114//45 68//62
f 210//2 46//2 17//15
f 121//39 122//42 108//26
